<svg xmlns="http://www.w3.org/2000/svg" viewBox="0 0 32 32" fill="none">
  <defs>
    <!-- Background Gradient -->
    <linearGradient id="bg-grad" x1="0%" y1="0%" x2="100%" y2="100%">
      <stop offset="0%" stop-color="#0a0c10" />
      <stop offset="100%" stop-color="#141923" />
    </linearGradient>
    
    <!-- Outer Border Gradient -->
    <linearGradient id="border-grad" x1="0%" y1="0%" x2="100%" y2="100%">
      <stop offset="0%" stop-color="rgba(110, 140, 255, 0.3)" />
      <stop offset="50%" stop-color="rgba(232, 236, 244, 0.05)" />
      <stop offset="100%" stop-color="rgba(195, 124, 255, 0.25)" />
    </linearGradient>

    <!-- Logo Mark Gradient (Periwinkle to Lavender) -->
    <linearGradient id="brand-grad" x1="0%" y1="0%" x2="100%" y2="100%">
      <stop offset="0%" stop-color="#6e8cff" />
      <stop offset="100%" stop-color="#c37cff" />
    </linearGradient>

    <!-- Inner Radial Glow -->
    <radialGradient id="glow" cx="50%" cy="50%" r="50%">
      <stop offset="0%" stop-color="rgba(110, 140, 255, 0.25)" />
      <stop offset="100%" stop-color="rgba(110, 140, 255, 0)" />
    </radialGradient>
  </defs>

  <!-- Deep Obsidian Base Squircle -->
  <rect x="1.5" y="1.5" width="29" height="29" rx="8" fill="url(#bg-grad)" stroke="url(#border-grad)" stroke-width="1"/>
  
  <!-- Subtle Grid/Alignment Dots in background -->
  <circle cx="10" cy="10" r="0.6" fill="rgba(232, 236, 244, 0.15)" />
  <circle cx="22" cy="10" r="0.6" fill="rgba(232, 236, 244, 0.15)" />
  <circle cx="10" cy="22" r="0.6" fill="rgba(232, 236, 244, 0.15)" />
  <circle cx="22" cy="22" r="0.6" fill="rgba(232, 236, 244, 0.15)" />

  <!-- Radial Glow Behind the T -->
  <circle cx="16" cy="16" r="10" fill="url(#glow)" />

  <!-- Dynamic Crop Marks (the Frame) -->
  <!-- Top Left -->
  <path class="crop-mark tl" d="M 5 9 V 5 H 9" stroke="rgba(232, 236, 244, 0.35)" stroke-width="1" stroke-linecap="round" />
  <!-- Top Right -->
  <path class="crop-mark tr" d="M 27 9 V 5 H 23" stroke="rgba(232, 236, 244, 0.35)" stroke-width="1" stroke-linecap="round" />
  <!-- Bottom Left -->
  <path class="crop-mark bl" d="M 5 23 V 27 H 9" stroke="rgba(232, 236, 244, 0.35)" stroke-width="1" stroke-linecap="round" />
  <!-- Bottom Right -->
  <path class="crop-mark br" d="M 27 23 V 27 H 23" stroke="rgba(232, 236, 244, 0.35)" stroke-width="1" stroke-linecap="round" />

  <!-- Styled Serif Letter 'T' with custom geometry -->
  <path class="logo-t" d="M 10 10.5 H 22 C 23.5 10.5 24 11 24 13 C 24 13.5 23.5 13.5 22.5 13.5 C 20.5 13.5 17.5 13.5 17.5 14 V 20.5 C 17.5 21.5 18 21.8 19.5 22 V 23.5 H 12.5 V 22 C 14 21.8 14.5 21.5 14.5 20.5 V 14 C 14 13.5 11.5 13.5 9.5 13.5 C 8.5 13.5 8 13.5 8 13 C 8 11 8.5 10.5 10 10.5 Z" fill="url(#brand-grad)" />
</svg>
